<?xml version="1.0" encoding="UTF-8"?>
<svg width="64" height="64" viewBox="0 0 64 64" fill="none" xmlns="http://www.w3.org/2000/svg">
  <!-- Background Circle -->
  <circle cx="32" cy="32" r="30" fill="url(#gradient)" stroke="#1e3a8a" stroke-width="2"/>
  
  <!-- Water Drop -->
  <path d="M32 12 C28 18, 24 22, 24 28 C24 34, 28 38, 32 38 C36 38, 40 34, 40 28 C40 22, 36 18, 32 12 Z" fill="#3b82f6" opacity="0.9"/>
  
  <!-- Shield Outline -->
  <path d="M20 20 L32 16 L44 20 L44 32 C44 40, 38 46, 32 50 C26 46, 20 40, 20 32 Z" fill="none" stroke="#1e3a8a" stroke-width="2" opacity="0.7"/>
  
  <!-- Roof Line -->
  <path d="M16 24 L32 18 L48 24" stroke="#059669" stroke-width="2" stroke-linecap="round"/>
  
  <!-- Water Protection Lines -->
  <path d="M22 42 Q32 38 42 42" stroke="#06b6d4" stroke-width="2" stroke-linecap="round" opacity="0.8"/>
  <path d="M24 46 Q32 42 40 46" stroke="#06b6d4" stroke-width="2" stroke-linecap="round" opacity="0.6"/>
  
  <defs>
    <linearGradient id="gradient" x1="0%" y1="0%" x2="100%" y2="100%">
      <stop offset="0%" style="stop-color:#dbeafe;stop-opacity:1" />
      <stop offset="100%" style="stop-color:#bfdbfe;stop-opacity:1" />
    </linearGradient>
  </defs>
</svg>